<svg version="1.1" id="Layer_1" xmlns="http://www.w3.org/2000/svg" xmlns:xlink="http://www.w3.org/1999/xlink" x="0px" y="0px"
	 width="100%" viewBox="0 0 1024 1024" enable-background="new 0 0 1024 1024" xml:space="preserve">
<path fill="#000000" opacity="1.000000" stroke="none" 
	d="
M511.559998,561.634766 
	C513.072205,580.208923 507.533417,596.415283 496.864716,610.673889 
	C480.145782,633.018555 457.241272,645.681763 430.160919,651.330872 
	C406.090942,656.351990 382.529938,654.725281 359.408081,646.395752 
	C357.725952,645.789795 355.961182,645.413208 354.049164,645.531433 
	C374.223236,660.656677 397.194275,666.743713 422.211639,667.152222 
	C447.246582,667.560913 469.491486,658.725281 491.124512,646.885376 
	C491.864929,650.162109 489.831329,650.973083 488.624512,652.117798 
	C471.303650,668.547607 450.383759,677.272522 426.964081,680.148010 
	C389.905182,684.697998 356.051605,675.495239 324.506073,656.057556 
	C315.427917,650.463745 311.945648,643.351746 314.362183,633.041626 
	C315.423065,628.515381 315.692505,623.798828 316.825134,619.295410 
	C317.978821,614.708557 317.294952,611.486267 312.381622,609.908447 
	C311.361786,609.580994 310.551727,608.600159 309.506348,607.816467 
	C308.549957,609.429321 309.635101,610.171936 310.565125,610.584961 
	C315.447449,612.753235 315.518707,616.365479 314.487823,620.974854 
	C312.302124,630.747864 310.874390,640.677551 312.881531,650.674744 
	C314.579071,659.129761 318.735809,666.189880 325.789001,671.393250 
	C327.283569,672.495789 327.226562,672.573059 328.248138,675.562561 
	C324.315125,677.188965 320.720184,675.639343 317.315582,674.166016 
	C299.537292,666.472473 292.000092,651.937927 290.775085,633.461914 
	C290.321320,626.617981 290.585175,619.777649 294.473938,613.671448 
	C296.834839,609.964294 299.490417,606.831787 304.680573,608.062256 
	C298.472290,606.260803 295.509369,607.114136 292.815765,611.139771 
	C290.259125,614.960632 291.247498,619.917542 288.962677,623.774048 
	C286.070404,624.097534 284.949432,621.913452 283.559723,620.435303 
	C263.606323,599.212097 251.372543,573.980774 245.961685,545.554993 
	C237.421570,500.689819 244.649338,458.656128 270.821198,420.743500 
	C294.250610,386.803650 326.237274,364.601746 366.651550,356.120880 
	C409.767700,347.073029 450.186249,354.778351 486.294800,380.579071 
	C505.615875,394.384583 519.485291,412.698425 526.299744,435.826965 
	C526.926636,437.954590 528.174561,440.171387 526.364563,442.391449 
	C524.069275,442.491608 523.647339,440.538544 522.902466,439.233521 
	C505.014557,407.891296 477.659668,390.040100 442.613251,383.888916 
	C406.001251,377.462921 362.623260,393.264862 341.184174,429.350159 
	C332.526245,443.922699 330.001038,460.163483 330.331177,476.937225 
	C330.364197,478.614990 331.732391,481.034119 329.418579,481.845123 
	C326.728058,482.788177 325.792969,480.070892 324.697052,478.331818 
	C321.353271,473.025543 321.485504,466.901245 320.878082,460.967865 
	C320.744720,459.665070 320.858582,458.337006 320.497345,456.956970 
	C316.516571,465.230988 314.714478,474.012451 314.284943,483.128662 
	C313.865936,492.021271 313.916931,500.894226 316.195496,509.885559 
	C312.491730,509.854370 312.133545,507.451416 311.431427,505.553558 
	C302.554840,481.559326 304.346741,458.192352 315.880676,435.521942 
	C318.367035,430.634918 321.515015,426.087250 324.285492,421.340851 
	C325.501831,419.256927 326.978882,417.214203 326.885376,414.350372 
	C323.404663,414.251068 321.877686,416.654022 320.338928,418.637756 
	C305.165985,438.198364 296.788330,460.077209 297.046631,485.151886 
	C297.405792,520.019348 313.406067,547.248840 337.782532,570.569153 
	C339.190765,571.916382 341.063416,572.926636 341.144135,575.452209 
	C339.179230,577.019470 337.331116,575.538086 335.667053,574.951050 
	C321.563080,569.975281 310.858917,560.309448 300.947876,549.557068 
	C299.339783,547.812500 298.336334,545.177368 295.063110,545.106628 
	C293.318542,548.818237 293.991119,552.504089 295.104889,556.172485 
	C299.846832,571.790894 310.171082,583.650574 322.193085,593.797913 
	C343.693176,611.945068 368.720001,621.766846 397.096680,620.519104 
	C415.917175,619.691528 433.345276,613.963074 447.915741,601.155884 
	C463.822449,587.174194 466.217224,556.680237 442.700073,544.378540 
	C428.633423,537.020386 413.691620,531.768250 399.430542,524.936218 
	C388.086090,519.501343 377.648438,512.921326 369.132141,503.357269 
	C349.673981,481.505280 351.424652,448.051971 370.102356,426.391632 
	C387.680603,406.006317 410.717102,399.907013 436.776276,402.284058 
	C445.492554,403.079102 453.727570,405.556366 462.002625,408.028870 
	C473.441925,411.446838 473.494568,411.585968 473.318115,424.672913 
	C474.931396,421.562592 476.791901,420.952972 478.821442,423.018829 
	C484.420776,428.718231 490.010620,434.429108 495.479248,440.252808 
	C496.548248,441.391235 497.900635,443.182892 496.522919,444.702820 
	C494.886627,446.507874 493.036743,445.089600 491.702423,443.897614 
	C483.134308,436.243408 473.720551,435.465118 463.491333,440.075958 
	C460.285828,441.520905 457.277832,440.004944 454.325165,438.913330 
	C443.543335,434.927368 432.588623,433.994232 421.511963,437.370514 
	C412.559906,440.099152 405.430878,445.174103 403.600708,454.959106 
	C401.687531,465.187927 406.601837,472.573883 414.706329,478.299225 
	C424.100677,484.935883 435.178375,487.861267 445.504944,492.440918 
	C448.701233,493.858398 451.907806,495.267395 455.177490,496.500519 
	C458.603760,497.792725 460.219513,499.553955 457.846985,503.169159 
	C457.137726,504.249969 456.738739,505.615723 456.497131,506.906952 
	C455.755096,510.872223 457.662415,513.453674 461.733276,513.618774 
	C468.056732,513.875122 474.393402,513.983826 480.721008,513.897888 
	C485.008301,513.839722 488.307098,515.351685 491.406616,518.316650 
	C503.668579,530.046265 509.947937,544.484253 511.559998,561.634766 
M278.750946,535.054382 
	C284.161255,537.933594 284.434174,542.505310 279.435272,546.250549 
	C277.306885,545.954224 277.440704,543.445679 275.330780,542.172668 
	C276.444122,544.908569 277.325409,547.074219 278.239288,549.319946 
	C285.264801,544.289917 286.003479,542.183838 282.689972,535.197632 
	C281.536926,532.766479 282.433807,531.142517 283.585419,529.245361 
	C285.651855,525.841125 285.440399,522.557129 281.492432,521.021484 
	C277.857758,519.607727 273.863403,519.118713 269.257904,518.042542 
	C271.807922,521.852905 275.245819,520.785156 277.935272,521.641907 
	C283.773712,523.501770 284.680756,525.758484 281.080627,530.542969 
	C279.994598,531.986389 278.407745,533.083435 277.325775,535.263916 
	C271.630157,538.297668 265.901978,540.987793 258.763062,535.539124 
	C260.915405,542.196350 260.328918,548.621277 268.060669,551.559326 
	C267.131287,545.555969 268.879700,541.452332 272.966370,539.238525 
	C275.088440,538.088989 276.820068,537.026733 278.750946,535.054382 
M433.941223,630.633301 
	C416.676361,635.498779 398.976227,636.634521 381.080841,636.563354 
	C382.634338,637.561279 384.154022,638.272949 385.751831,638.585876 
	C398.231476,641.030090 410.788177,641.790100 423.373566,639.574585 
	C438.407684,636.928101 452.842804,632.673950 464.765442,622.499390 
	C466.479065,621.036987 469.942444,619.505493 467.818298,616.693909 
	C465.900543,614.155579 463.616608,617.005798 461.863647,618.114990 
	C453.376953,623.484863 444.378784,627.658081 433.941223,630.633301 
M384.708466,440.387878 
	C385.907349,438.358398 387.106232,436.328949 388.890045,433.309296 
	C375.527283,442.237213 369.841583,460.351471 374.973267,474.871857 
	C380.269836,489.858826 393.486420,502.836029 403.249969,502.020782 
	C381.846954,486.140106 373.431610,466.483307 384.708466,440.387878 
M488.755859,550.011963 
	C493.252045,563.055908 492.928162,576.242432 489.623444,589.517151 
	C501.976135,571.008789 494.731537,539.939941 475.891754,530.565857 
	C481.123779,536.878357 486.434570,542.033386 488.755859,550.011963 
M457.683777,436.570099 
	C462.331726,436.480225 462.248840,432.657471 463.451599,429.722290 
	C461.583679,428.510345 458.599487,429.941101 458.112366,427.017120 
	C458.702515,424.332458 461.207001,425.983734 462.579437,424.896667 
	C461.548279,423.851288 459.263641,424.355164 459.510193,422.126740 
	C460.350159,420.647614 461.812378,420.803314 463.036377,421.084717 
	C466.379974,421.853333 467.045258,419.606384 467.532104,417.253174 
	C468.026031,414.865631 466.696930,413.573425 464.547821,412.831390 
	C461.600006,411.813629 460.199982,413.387787 459.315979,415.842865 
	C457.633850,420.514313 456.148285,425.264465 454.270844,429.855072 
	C452.911713,433.178375 453.617950,435.257324 457.683777,436.570099 
M261.661896,504.069733 
	C262.520721,509.603088 263.379578,515.136414 264.275360,520.907715 
	C267.287811,516.410095 262.625458,511.914459 264.907928,507.753357 
	C266.666992,507.658905 266.341949,509.691406 267.720398,509.834351 
	C267.720398,507.639343 267.766754,505.479980 267.708649,503.323425 
	C267.636475,500.646271 267.799652,497.323242 264.052795,497.439728 
	C260.146149,497.561249 261.599915,500.950134 261.661896,504.069733 
M298.982086,429.212738 
	C299.882385,428.265656 300.933899,427.419159 301.647034,426.347534 
	C302.680420,424.794739 303.350342,422.949677 301.967499,421.315643 
	C300.605133,419.705780 298.915375,420.405945 297.531921,421.424530 
	C295.267334,423.091827 293.839661,425.321960 294.555756,428.228088 
	C295.072449,430.325073 296.623199,430.570312 298.982086,429.212738 
M373.187195,371.999878 
	C375.574799,371.751068 375.500427,370.328247 374.363434,368.944611 
	C372.254272,366.377960 369.345795,365.897247 366.302612,366.780487 
	C364.988800,367.161804 363.991943,368.379608 364.583679,369.881012 
	C365.125244,371.255157 366.498016,371.760620 367.887878,371.340729 
	C369.574646,370.831146 371.117310,370.742188 373.187195,371.999878 
M380.078369,364.255432 
	C382.224060,367.113251 384.669464,367.089111 387.093781,364.757233 
	C388.169617,363.722443 388.136322,362.200104 386.755463,361.402710 
	C383.787170,359.688690 381.462921,360.463684 380.078369,364.255432 
M311.149506,604.188416 
	C312.468658,601.880066 315.974457,601.280029 316.253326,598.049744 
	C311.566498,596.484436 311.203400,596.552185 307.850159,599.541565 
	C309.429840,600.181702 310.630066,597.401794 312.235748,599.101196 
	C313.118958,601.232483 310.234802,602.337341 311.149506,604.188416 
z"/>
<path fill="#000000" opacity="1.000000" stroke="none" 
	d="
M582.174438,588.279785 
	C582.273804,593.613525 581.168762,598.312683 579.567322,602.879272 
	C574.936951,616.082764 566.722229,621.610962 550.737610,621.850708 
	C541.422302,621.990540 532.099060,621.504456 522.778198,621.411499 
	C519.388428,621.377808 518.231934,620.022217 519.243896,616.747803 
	C519.783325,615.002258 520.201050,613.208862 520.529663,611.410645 
	C521.150513,608.012573 523.206177,606.773254 526.541809,606.806641 
	C534.867493,606.890015 543.195129,606.761353 551.521057,606.829773 
	C554.567444,606.854797 557.027771,606.138306 558.718140,603.349182 
	C562.352783,597.351868 560.656921,593.370850 553.765381,592.642944 
	C549.640686,592.207336 545.448914,592.444824 541.291809,592.271118 
	C531.283386,591.853210 526.264099,586.577148 526.772705,576.614075 
	C527.132568,569.563354 529.020691,562.841431 532.517517,556.643127 
	C536.957581,548.772827 544.023193,545.258972 552.748413,545.078064 
	C562.734497,544.871033 572.728882,545.058289 582.719666,545.079773 
	C586.419250,545.087708 587.608154,546.547852 586.705933,550.422363 
	C583.991455,562.079468 585.588562,560.128052 574.292053,560.410706 
	C567.980286,560.568542 561.631775,559.748718 555.361267,561.019958 
	C550.546509,561.996033 547.599060,566.482300 548.320251,571.356628 
	C548.777527,574.447083 550.930664,574.870361 553.395630,574.983765 
	C558.548828,575.220825 563.716675,575.278870 568.852600,575.715210 
	C577.261047,576.429626 580.418884,579.429321 582.174438,588.279785 
z"/>
<path fill="#000000" opacity="1.000000" stroke="none" 
	d="
M769.013916,605.744263 
	C763.856384,617.414185 754.921570,621.702148 742.863586,621.494385 
	C729.386292,621.262085 732.007812,619.554565 728.737793,632.398926 
	C724.759216,648.026733 728.005371,644.912048 711.459229,645.313660 
	C707.710632,645.404663 706.472534,644.133667 707.427429,640.182861 
	C713.121521,616.624573 718.651917,593.026367 724.128967,569.416443 
	C724.916077,566.023132 726.767212,564.544983 730.085205,564.907410 
	C734.850281,565.427795 740.007812,563.096375 744.350586,567.098877 
	C745.270874,567.947021 746.851990,566.698792 748.040588,566.165955 
	C752.982971,563.949890 758.205200,564.151245 763.235779,565.132385 
	C771.588074,566.761475 775.165283,571.933838 774.570068,580.647034 
	C773.989136,589.151428 772.182739,597.409119 769.013916,605.744263 
M752.591248,596.079895 
	C753.289246,592.500061 754.592896,589.054077 754.721741,585.343201 
	C754.850037,581.646362 753.474792,579.079712 749.660645,578.572144 
	C745.658142,578.039429 741.624939,578.460571 740.317627,583.082886 
	C738.418823,589.796570 736.969543,596.641174 735.467651,603.460510 
	C735.127075,605.006775 734.861816,606.782410 736.987244,607.689209 
	C742.127930,609.882568 748.843933,606.972290 750.809814,601.592773 
	C751.380554,600.031128 751.866333,598.438354 752.591248,596.079895 
z"/>
<path fill="#000000" opacity="1.000000" stroke="none" 
	d="
M810.670715,552.099976 
	C810.585083,553.492249 810.470398,554.485229 810.283020,555.464233 
	C808.647034,564.014099 808.636658,564.077942 817.388123,564.974243 
	C820.319519,565.274475 821.477722,566.322205 820.924194,569.458374 
	C819.387024,578.166992 819.482239,578.349609 810.647217,578.273376 
	C806.755554,578.239807 804.925720,579.602051 804.252380,583.465332 
	C803.227295,589.346924 801.585205,595.119690 800.511536,600.994690 
	C799.580383,606.089844 801.035400,607.419312 806.231812,607.791809 
	C808.357910,607.944214 811.614624,606.142029 812.316650,610.065552 
	C813.076355,614.311768 810.355652,620.271667 807.170654,620.778320 
	C800.920166,621.772705 794.533020,622.069702 788.337585,620.712830 
	C782.612305,619.458984 779.825623,615.413025 779.755737,609.402588 
	C779.663635,601.483643 782.521851,594.083679 783.991821,586.438416 
	C784.457336,584.017456 784.950562,581.601746 785.379639,579.442566 
	C783.701843,577.438538 779.272278,578.648499 780.550232,574.591614 
	C781.688171,570.979431 780.081238,565.638550 786.151794,564.882141 
	C788.686951,564.566345 789.194458,562.719238 789.712769,560.714478 
	C792.828369,548.663391 790.544983,550.162598 803.792358,549.927063 
	C806.151245,549.885132 808.883789,549.026978 810.670715,552.099976 
z"/>
<path fill="#000000" opacity="1.000000" stroke="none" 
	d="
M590.246460,617.822388 
	C585.232666,612.979370 585.225769,607.058105 585.846191,601.236267 
	C586.658875,593.610535 588.580627,586.163940 591.630249,579.106567 
	C595.739685,569.596680 603.044861,564.679749 613.510437,564.689758 
	C621.006226,564.696960 628.504089,564.816406 635.996948,564.671753 
	C639.879639,564.596802 640.951843,566.169495 640.305481,569.857056 
	C638.709473,578.962402 638.581055,579.177917 629.113098,578.916870 
	C625.453491,578.816040 621.798767,578.444580 618.140381,578.421875 
	C613.824097,578.394958 610.828369,580.530334 609.509766,584.664673 
	C607.790710,590.054688 606.425476,595.519409 606.063660,601.218018 
	C605.786316,605.585999 607.344727,607.843811 611.984375,607.713318 
	C617.144043,607.568176 622.311340,607.717529 627.473999,607.645508 
	C630.808167,607.598999 632.339050,608.474609 631.472839,612.358032 
	C629.519165,621.116333 629.510498,621.312744 620.343872,621.341431 
	C614.347290,621.360168 608.349060,621.271423 602.354553,621.386475 
	C598.045532,621.469177 594.117981,620.458374 590.246460,617.822388 
z"/>
<path fill="#000000" opacity="1.000000" stroke="none" 
	d="
M463.051941,505.123810 
	C463.784576,501.477997 465.874878,500.582336 468.974487,500.668427 
	C474.466339,500.820953 479.966217,500.655182 485.462006,500.704651 
	C488.716370,500.733948 490.939972,499.438385 491.706726,496.174347 
	C492.393494,493.250916 491.637573,491.230591 488.207367,491.021088 
	C484.717896,490.808014 481.220612,490.637787 477.747650,490.257782 
	C471.784668,489.605377 468.935394,486.340240 468.653595,480.384033 
	C468.444763,475.969666 469.269989,471.769318 470.780701,467.670624 
	C473.169281,461.190216 477.445068,457.209076 484.639648,456.458557 
	C492.628662,455.625183 500.608978,456.087280 508.591248,456.096069 
	C510.598419,456.098297 513.662659,456.066284 512.861572,459.355103 
	C512.127625,462.368103 513.314636,467.089294 508.037537,467.299316 
	C502.715637,467.511169 497.380035,467.391754 492.050415,467.391449 
	C489.613434,467.391327 487.412659,467.923492 485.833099,469.953247 
	C484.537384,471.618195 483.854614,473.521759 484.593170,475.553467 
	C485.365204,477.677368 487.372070,477.614807 489.225006,477.679993 
	C492.714844,477.802734 496.252472,477.627319 499.682739,478.149994 
	C505.929535,479.101807 508.906097,482.947662 508.819977,489.236328 
	C508.637665,502.554779 501.644989,510.343018 488.278412,511.497009 
	C481.658417,512.068481 474.974335,511.931641 468.318024,512.039307 
	C462.003052,512.141479 461.776123,511.823944 463.051941,505.123810 
z"/>
<path fill="#000000" opacity="1.000000" stroke="none" 
	d="
M364.099426,572.022766 
	C360.704193,572.381104 357.737579,572.116150 354.791351,571.420898 
	C353.209167,571.047546 351.182373,571.256409 350.738373,569.206177 
	C350.326996,567.306580 351.989349,566.251282 353.189850,565.145874 
	C356.236267,562.340881 359.369659,559.635132 363.274872,557.334412 
	C359.685944,553.435974 356.553192,549.587585 354.675659,544.912537 
	C354.121063,543.531616 353.182312,542.069702 354.393433,540.719238 
	C355.619965,539.351624 357.235199,540.111267 358.599121,540.606995 
	C362.631989,542.072693 366.619659,543.662903 370.761292,545.256897 
	C372.836639,542.656189 372.733154,539.452820 374.002319,536.804504 
	C375.252014,534.196838 375.269653,530.946045 378.311737,528.461609 
	C383.028168,533.456116 383.309784,540.061707 386.005768,545.867981 
	C391.313538,544.196533 395.527283,539.214722 402.293274,539.851990 
	C401.310791,546.897766 397.349640,551.640442 392.305634,556.390747 
	C397.621613,557.671814 402.926208,558.372681 407.171539,562.495911 
	C403.973663,566.705872 398.918213,565.941406 394.787262,568.013977 
	C397.103882,572.657898 400.092682,577.104370 400.704529,583.221863 
	C393.780548,583.365356 389.368774,578.787537 384.003265,575.571045 
	C380.636627,580.433838 379.581909,586.815796 373.708466,590.463501 
	C370.885223,586.224182 370.801727,581.644714 370.708832,577.083801 
	C370.616486,572.550537 369.150482,571.318054 364.099426,572.022766 
M370.651031,563.822510 
	C367.228149,564.773132 363.805237,565.723694 360.382355,566.674255 
	C364.216949,566.502014 368.445496,567.521667 370.651031,563.822510 
M376.017914,577.023132 
	C375.967834,578.121521 375.917755,579.219910 375.867645,580.318298 
	C376.611511,577.660156 379.630280,575.375854 377.830475,571.825256 
	C375.796539,573.290222 376.363617,574.949768 376.017914,577.023132 
z"/>
<path fill="#000000" opacity="1.000000" stroke="none" 
	d="
M553.718933,486.392578 
	C552.843018,490.048737 552.302063,493.359375 551.249756,496.498688 
	C547.951599,506.338745 540.920288,511.224976 530.544495,511.161377 
	C523.489075,511.118164 523.234924,511.316101 521.547546,518.241211 
	C521.429565,518.725464 521.388672,519.228088 521.279175,519.714783 
	C519.674927,526.843750 514.868286,529.434265 507.893524,527.075012 
	C505.178162,526.156555 506.125610,524.331665 506.516235,522.609863 
	C509.715851,508.506805 512.932739,494.407745 516.142700,480.307098 
	C516.327087,479.497406 516.511169,478.687256 516.671082,477.872528 
	C518.236877,469.893982 522.772400,467.309570 530.500549,470.446289 
	C532.564636,471.284058 534.183960,471.290497 536.176392,470.728333 
	C549.191956,467.056061 555.519470,472.551331 553.718933,486.392578 
M534.724304,499.284851 
	C537.311462,495.288452 538.254578,490.771454 538.846741,486.152557 
	C539.155640,483.743042 539.220947,481.215546 536.206238,480.567017 
	C533.069153,479.892181 530.564148,481.149445 529.601868,484.341949 
	C528.649597,487.501434 527.896362,490.737518 527.303772,493.985260 
	C526.133423,500.399750 527.787903,501.745667 534.724304,499.284851 
z"/>
<path fill="#000000" opacity="1.000000" stroke="none" 
	d="
M638.190063,616.500000 
	C641.552612,600.652527 644.854797,585.234558 648.007080,569.786011 
	C648.716919,566.307007 650.262878,564.476868 654.027832,564.755615 
	C656.674011,564.951599 659.352112,564.847290 662.009460,564.729553 
	C665.540283,564.573303 668.651978,564.779541 667.280212,570.494202 
	C672.746643,566.824402 677.540894,564.359863 683.352783,564.657593 
	C686.375671,564.812500 687.496765,565.893066 687.140381,568.945679 
	C685.996033,578.746277 685.488281,579.339905 676.057007,580.455811 
	C666.085693,581.635620 664.197144,583.603577 662.339478,593.626404 
	C660.888855,601.453186 658.922241,609.184509 657.477112,617.012146 
	C656.859924,620.355530 655.172913,621.456116 652.018860,621.341187 
	C648.529846,621.213928 645.031860,621.266235 641.539246,621.326416 
	C638.373962,621.380920 637.354797,619.861267 638.190063,616.500000 
z"/>
<path fill="#000000" opacity="1.000000" stroke="none" 
	d="
M630.901489,500.497314 
	C635.619507,500.655151 639.944824,500.626404 644.264282,500.771667 
	C646.077637,500.832611 648.902405,500.083130 648.585999,503.256531 
	C648.324707,505.877472 648.581116,509.640533 644.911438,510.075287 
	C637.504333,510.952820 630.012817,511.998657 622.580017,510.228455 
	C616.725464,508.834106 614.449707,505.925598 614.633728,499.922272 
	C614.849548,492.884949 616.537659,486.081299 619.101685,479.581635 
	C621.233582,474.177521 625.723938,471.234711 631.434814,470.789825 
	C636.222290,470.416870 641.075684,470.480164 645.874512,470.770386 
	C651.414856,471.105469 654.643250,474.762512 654.635132,480.317474 
	C654.629211,484.343719 653.515381,488.189545 652.301331,492.004608 
	C651.538208,494.402710 650.041809,495.397095 647.501953,495.417084 
	C642.683350,495.455048 637.862488,495.669037 633.050659,495.949860 
	C630.141174,496.119659 627.689270,496.804810 630.901489,500.497314 
M639.560913,480.562378 
	C638.585388,480.461639 637.612000,480.328430 636.633972,480.266663 
	C634.238098,480.115295 632.493164,480.994873 631.703064,483.407593 
	C631.310852,484.605225 631.189270,486.028290 632.508179,486.339081 
	C635.038147,486.935272 637.896790,487.508850 640.127197,485.913330 
	C641.816772,484.704681 642.290405,482.610260 639.560913,480.562378 
z"/>
<path fill="#000000" opacity="1.000000" stroke="none" 
	d="
M705.919373,564.764160 
	C708.815063,564.967407 711.399841,564.238770 714.019104,566.309875 
	C711.692078,577.097717 709.317200,588.071045 706.960388,599.048279 
	C705.706482,604.888672 704.477844,610.734497 703.251831,616.580811 
	C702.942078,618.057678 702.627808,619.531616 701.345886,620.515015 
	C700.128723,621.448730 685.481140,621.698303 684.089966,620.852356 
	C682.434570,619.845703 682.769226,618.327820 683.109863,616.864319 
	C686.832520,600.869263 690.628601,584.890930 694.264465,568.876282 
	C694.947388,565.868530 696.526855,564.682739 699.460510,564.791748 
	C701.452087,564.865784 703.449585,564.779968 705.919373,564.764160 
z"/>
<path fill="#000000" opacity="1.000000" stroke="none" 
	d="
M738.029236,549.972168 
	C735.910217,553.212219 733.640991,553.967590 730.271606,551.259766 
	C726.521973,548.246460 722.052429,546.103516 718.420776,542.973206 
	C706.162964,532.407715 705.383240,513.531738 716.492493,501.828888 
	C717.596130,500.666199 718.595154,499.169098 720.662231,499.411163 
	C720.790955,499.870239 721.093079,500.360626 721.026001,500.793823 
	C719.089294,513.296143 719.875000,514.913086 730.897522,520.918579 
	C740.104492,525.934875 742.931824,532.547302 740.146423,542.589478 
	C739.524353,544.832031 738.855530,547.061646 738.104370,549.651123 
	C738.000427,550.005066 738.029236,549.972168 738.029236,549.972168 
z"/>
<path fill="#000000" opacity="1.000000" stroke="none" 
	d="
M601.453247,480.321777 
	C596.567810,480.048676 594.203308,482.338074 593.362671,486.511810 
	C593.296997,486.838318 593.228271,487.164337 593.152893,487.488739 
	C590.211792,500.138733 589.577026,501.251648 603.109009,500.758148 
	C605.050171,500.687378 608.021729,499.847382 608.099487,503.199310 
	C608.171570,506.303711 608.096741,509.973480 603.848267,510.538147 
	C597.070618,511.439026 590.232788,511.846008 583.515869,510.068817 
	C579.120422,508.905945 576.669556,505.827820 576.772949,501.306732 
	C576.957092,493.261047 578.452026,485.429413 582.117126,478.180817 
	C584.393372,473.679169 588.363708,471.425812 593.258301,470.681305 
	C599.053894,469.799744 604.888672,470.031097 610.710632,470.173584 
	C612.818359,470.225189 615.593262,470.206421 615.134888,473.422699 
	C614.721375,476.324371 615.097473,480.208405 610.390503,480.288116 
	C607.560181,480.336060 604.728638,480.310547 601.453247,480.321777 
z"/>
<path fill="#000000" opacity="1.000000" stroke="none" 
	d="
M263.627319,378.691040 
	C273.711975,381.298706 278.852417,390.119080 275.777313,398.818573 
	C272.699158,407.526703 263.283844,411.730499 254.703415,408.227783 
	C248.045761,405.510040 244.533203,398.542145 245.819031,390.603760 
	C246.916672,383.827118 252.550110,378.967255 259.710236,378.649994 
	C260.868744,378.598663 262.032196,378.658447 263.627319,378.691040 
z"/>
<path fill="#000000" opacity="1.000000" stroke="none" 
	d="
M737.987427,550.022705 
	C745.745178,542.924194 745.923157,532.406311 738.435120,522.818787 
	C733.796082,516.878967 733.522034,512.254089 737.477966,507.096771 
	C738.614929,505.614532 739.985657,504.384277 741.687317,503.665192 
	C745.780090,501.935822 749.310059,499.702087 750.165283,494.079651 
	C753.707520,498.438385 754.111145,502.613373 752.629883,506.741455 
	C750.492126,512.698730 750.816040,517.458374 756.217773,521.776672 
	C760.714172,525.371277 760.120911,530.823975 758.583557,535.660156 
	C755.821655,544.348206 748.459167,548.472229 740.850281,552.110535 
	C739.581238,552.717346 738.138916,552.700073 738.024292,550.302979 
	C738.029236,549.972168 738.000427,550.005066 737.987427,550.022705 
z"/>
<path fill="#000000" opacity="1.000000" stroke="none" 
	d="
M695.861572,520.208008 
	C696.622375,520.899719 697.085205,521.626648 697.647583,521.714233 
	C705.684631,522.966431 708.336243,528.832031 710.352234,535.703308 
	C712.387024,542.638855 717.390015,547.223816 723.821655,550.343689 
	C725.412292,551.115234 727.352539,551.568787 728.061951,553.907410 
	C724.932617,557.404358 720.395020,557.570374 716.282532,557.889832 
	C700.483826,559.116943 687.644104,542.644714 692.644287,527.681580 
	C693.445740,525.283325 693.174988,523.640442 691.739136,521.760498 
	C690.112610,519.630859 689.061768,517.279175 690.654358,514.215637 
	C693.386475,515.533386 693.793030,518.376770 695.861572,520.208008 
z"/>
<path fill="#000000" opacity="1.000000" stroke="none" 
	d="
M480.826111,353.956909 
	C482.282318,353.656647 483.688080,352.812225 484.462952,353.206787 
	C487.797028,354.904358 490.880798,355.746796 494.916870,355.431458 
	C498.587402,355.144714 498.730316,360.011047 499.261566,362.892975 
	C499.889648,366.300110 500.513245,369.510895 502.020477,372.732513 
	C503.418945,375.721649 502.308167,378.763367 499.124359,380.630188 
	C496.781525,379.067688 498.537170,375.153900 494.908417,374.648590 
	C493.372650,374.917725 494.760559,377.224243 492.497650,377.846130 
	C483.711853,373.014557 474.441833,367.916687 465.037628,362.745026 
	C465.701813,357.161682 474.297760,352.062561 480.826111,353.956909 
z"/>
<path fill="#000000" opacity="1.000000" stroke="none" 
	d="
M393.225616,608.139404 
	C387.290375,605.321350 387.290375,605.321350 385.826904,601.715149 
	C386.190918,601.468567 386.607483,600.943481 386.958862,600.983948 
	C396.517395,602.085266 404.352753,598.150269 412.048309,593.066956 
	C419.362610,588.235474 424.072388,588.595825 429.421997,592.946716 
	C431.132080,594.337524 431.548035,595.776062 430.809753,597.727173 
	C428.147644,604.762329 423.786865,609.511963 415.740295,610.435730 
	C408.133911,611.309082 400.834900,610.463257 393.225616,608.139404 
z"/>
<path fill="#000000" opacity="1.000000" stroke="none" 
	d="
M348.338684,686.255859 
	C354.555054,681.619934 360.875153,681.059875 367.248901,684.706787 
	C372.895996,687.937927 374.856232,693.299377 374.250092,699.552429 
	C373.633148,705.916809 370.079224,710.252747 364.179291,712.593567 
	C357.354126,715.301392 349.725189,713.239807 345.888062,707.769958 
	C341.058655,700.885620 341.807617,693.522888 348.338684,686.255859 
M366.199524,695.454346 
	C364.916809,691.906311 362.348999,690.111328 358.619965,690.310547 
	C355.540466,690.475098 352.809265,691.431213 351.448303,694.653503 
	C349.890717,698.341492 350.756165,701.361328 353.601715,704.039001 
	C355.952942,706.251526 358.463531,707.473938 361.649170,705.928040 
	C365.769104,703.928894 367.414917,700.696106 366.199524,695.454346 
z"/>
<path fill="#000000" opacity="1.000000" stroke="none" 
	d="
M567.039185,470.653809 
	C576.199341,470.611176 577.128052,468.592865 574.651978,479.211548 
	C572.619202,487.929016 571.028625,496.748688 569.127136,505.498108 
	C568.085693,510.290344 559.537781,513.217468 555.518982,510.305878 
	C554.118958,509.291595 554.457947,507.910126 554.732422,506.686005 
	C557.198975,495.686005 559.759827,484.707214 562.249939,473.712433 
	C562.795776,471.302185 564.325012,470.495758 567.039185,470.653809 
z"/>
<path fill="#000000" opacity="1.000000" stroke="none" 
	d="
M534.494263,464.137238 
	C532.769287,464.899109 532.566895,466.873810 530.479492,467.245209 
	C529.241699,463.588867 524.666077,464.916321 522.608704,462.623718 
	C522.269043,460.192047 524.829407,460.395996 525.119324,458.610870 
	C523.524414,456.249084 523.021301,453.541565 524.702759,450.882690 
	C526.313904,448.334991 529.679504,447.547180 530.993103,449.595093 
	C534.057251,454.372131 536.907288,453.167664 540.330933,450.323730 
	C542.749634,452.311707 544.984497,454.226807 548.358826,453.497345 
	C550.669312,452.997833 553.443848,453.731781 552.636536,456.541046 
	C551.841980,459.305756 553.284790,464.503296 547.583496,463.940887 
	C543.306763,463.519043 539.075806,462.853027 534.494263,464.137238 
z"/>
<path fill="#000000" opacity="1.000000" stroke="none" 
	d="
M334.036041,499.364838 
	C333.850006,497.473267 333.563477,495.952271 333.761383,494.497131 
	C334.206757,491.221802 336.577728,490.170990 338.995575,492.468964 
	C344.547241,497.745361 350.401276,502.655365 356.178772,507.666992 
	C359.176819,510.267609 358.304138,513.025146 355.206848,515.038147 
	C352.640106,516.706360 349.889679,516.613953 347.101379,515.400574 
	C340.134552,512.368958 336.569519,506.550659 334.036041,499.364838 
z"/>
<path fill="#000000" opacity="1.000000" stroke="none" 
	d="
M294.761505,355.173492 
	C298.646729,348.584869 304.884186,346.507690 310.456085,349.609070 
	C315.431671,352.378540 317.220062,359.683258 314.220703,364.985657 
	C311.366638,370.031250 304.730164,371.798859 299.383545,368.937531 
	C294.859772,366.516571 293.184143,361.785339 294.761505,355.173492 
M303.917572,363.610565 
	C306.657959,364.164581 308.303223,362.792877 309.293121,360.441528 
	C309.946350,358.889984 309.290802,357.546936 308.263550,356.393616 
	C306.867432,354.826172 305.034729,354.828430 303.268921,355.407715 
	C299.628571,356.601990 299.643829,359.830322 303.917572,363.610565 
z"/>
<path fill="#000000" opacity="1.000000" stroke="none" 
	d="
M263.104736,621.538269 
	C262.706055,617.274170 262.770813,613.569031 267.771576,610.618103 
	C272.044006,621.385437 276.159882,631.758240 280.275787,642.131104 
	C279.824463,642.394531 279.373169,642.657959 278.921875,642.921387 
	C270.686584,638.314941 265.270081,631.461548 263.104736,621.538269 
z"/>
<path fill="#000000" opacity="1.000000" stroke="none" 
	d="
M339.877441,599.020874 
	C327.935028,593.190979 318.227814,585.425964 311.398895,574.250671 
	C313.562286,572.529541 314.683014,573.582764 315.652649,574.335876 
	C323.929443,580.764893 332.169861,587.241028 340.387390,593.745605 
	C341.286224,594.457092 342.247620,595.312988 342.702332,596.318054 
	C343.832733,598.816528 342.809418,599.769897 339.877441,599.020874 
z"/>
<path fill="#000000" opacity="1.000000" stroke="none" 
	d="
M572.789551,465.340515 
	C569.882812,465.187256 567.362854,465.763611 564.686523,464.630463 
	C563.876465,461.137146 565.450806,457.910217 566.392822,454.688568 
	C566.954102,452.768890 574.587646,451.678650 577.486206,452.959381 
	C580.762512,454.407043 578.814331,456.920258 578.414978,458.969818 
	C577.837036,461.935822 577.996033,465.689484 572.789551,465.340515 
z"/>
<path fill="#000000" opacity="1.000000" stroke="none" 
	d="
M412.603271,691.254639 
	C415.388397,693.583984 416.862946,696.061523 415.131409,699.281311 
	C413.787354,701.780457 411.634064,703.379395 408.665558,702.961426 
	C405.794495,702.557129 403.888031,700.800598 403.225006,697.891541 
	C402.047058,692.723267 406.525543,689.344849 412.603271,691.254639 
z"/>
<path fill="#000000" opacity="1.000000" stroke="none" 
	d="
M400.032104,392.549500 
	C402.077301,392.478027 403.412750,392.981171 403.523987,394.899780 
	C403.600311,396.216888 402.752869,397.099121 401.592468,397.530609 
	C394.056641,400.332672 386.505341,403.093109 378.631378,405.321136 
	C383.388702,397.492188 391.231903,394.566345 400.032104,392.549500 
z"/>
<path fill="#000000" opacity="1.000000" stroke="none" 
	d="
M241.812256,434.876434 
	C243.301819,431.577393 244.997452,430.530518 246.130463,434.472137 
	C246.748749,436.623108 247.702606,437.521637 249.755829,437.782013 
	C250.980911,437.937408 251.999161,438.608398 251.866623,440.061249 
	C251.760956,441.219391 250.726776,441.985504 249.827850,441.891113 
	C245.640106,441.451447 247.329544,446.854584 244.507156,447.239685 
	C240.955612,447.724243 242.843994,441.793091 238.943512,442.063232 
	C237.642197,442.153351 236.210785,441.450836 236.185562,439.783813 
	C236.158981,438.026428 237.587433,437.757629 238.957550,437.618896 
	C240.443527,437.468414 241.442505,436.786194 241.812256,434.876434 
z"/>
<path fill="#000000" opacity="1.000000" stroke="none" 
	d="
M344.054260,446.033264 
	C342.856964,448.915375 342.921448,451.901611 340.936646,454.161530 
	C337.435333,449.699341 342.464325,435.921173 348.952301,433.282471 
	C348.694092,438.206757 345.342194,441.569489 344.054260,446.033264 
z"/>
<path fill="#000000" opacity="1.000000" stroke="none" 
	d="
M443.152466,580.406921 
	C439.468994,579.225403 439.166199,576.733337 440.229187,574.001099 
	C441.063904,571.855469 443.093658,571.392395 445.201416,571.824158 
	C447.509308,572.296875 448.412048,574.020264 448.367401,576.193787 
	C448.303833,579.287537 446.450195,580.526672 443.152466,580.406921 
z"/>
<path fill="#000000" opacity="1.000000" stroke="none" 
	d="
M456.185547,434.175598 
	C456.734680,430.327850 457.016510,430.264313 460.667999,432.935516 
	C459.830902,435.077301 458.422302,435.529816 456.185547,434.175598 
z"/>
<path fill="#000000" opacity="1.000000" stroke="none" 
	d="
M266.959534,544.677063 
	C266.841980,546.338379 266.848816,547.674011 265.139282,548.408997 
	C262.490997,546.705566 262.014984,544.119995 262.381531,541.302063 
	C262.526001,540.191711 263.618347,539.823364 264.672424,540.050049 
	C267.040344,540.559021 266.890747,542.505676 266.959534,544.677063 
z"/>
</svg>