<?xml version="1.0" standalone="no"?>
<!DOCTYPE svg PUBLIC "-//W3C//DTD SVG 20010904//EN"
 "http://www.w3.org/TR/2001/REC-SVG-20010904/DTD/svg10.dtd">
<svg version="1.0" xmlns="http://www.w3.org/2000/svg"
 width="1800.000000pt" height="1800.000000pt" viewBox="0 0 1800.000000 1800.000000"
 preserveAspectRatio="xMidYMid meet">
<g transform="translate(0.000000,1800.000000) scale(0.100000,-0.100000)"
fill="#000000" stroke="none">
<path d="M5233 11860 c-18 -10 -45 -39 -60 -62 l-28 -43 0 -66 0 -66 27 -36
c16 -19 41 -45 58 -57 l29 -21 63 -1 63 -1 37 22 c20 12 49 38 63 57 l27 36 1
71 0 72 -22 37 -22 37 -43 20 -42 21 -60 0 -59 0 -32 -20z m164 -102 l23 -21
0 -43 0 -43 -27 -26 -28 -25 -33 0 -34 0 -30 30 -30 31 5 37 6 37 26 23 26 22
36 0 37 0 23 -22z"/>
<path d="M6730 11788 c-58 -5 -131 -15 -162 -23 -32 -8 -74 -15 -94 -15 -41 0
-84 -12 -294 -81 -227 -74 -492 -196 -646 -296 -33 -21 -64 -40 -69 -43 -66
-32 -478 -406 -526 -476 -8 -12 -41 -55 -74 -95 -123 -151 -166 -216 -273
-404 -12 -22 -40 -78 -63 -125 -22 -47 -44 -93 -49 -102 -63 -116 -200 -591
-200 -693 0 -16 -7 -66 -15 -110 l-14 -80 -1 -195 0 -195 15 -150 c9 -82 20
-175 26 -205 6 -30 14 -80 19 -110 5 -30 19 -86 30 -125 12 -38 25 -86 30
-105 4 -19 14 -51 21 -70 7 -19 26 -71 42 -115 104 -285 316 -633 517 -847 72
-78 99 -94 101 -60 6 145 51 242 131 283 l41 21 36 -4 c20 -3 43 -7 51 -9 l15
-4 3 45 3 45 26 34 c48 62 125 85 174 50 l29 -20 0 -24 0 -23 -40 -32 c-37
-30 -70 -76 -70 -98 0 -6 18 -19 39 -30 22 -12 51 -31 65 -43 l26 -23 0 -35
c0 -20 -5 -54 -11 -76 -36 -139 -64 -363 -54 -441 l6 -51 47 -47 c44 -43 184
-146 199 -146 3 0 14 -6 22 -14 21 -19 158 -90 235 -123 33 -14 79 -34 101
-44 45 -20 114 -46 160 -59 28 -8 54 -16 135 -45 109 -39 237 -68 395 -90
l120 -17 280 5 280 5 85 16 c296 54 555 156 783 310 82 55 134 96 216 172 l44
41 -6 17 c-9 24 -41 20 -89 -13 -42 -29 -179 -99 -268 -139 -101 -45 -119 -52
-133 -52 -9 0 -18 -4 -22 -9 -3 -5 -20 -13 -38 -17 -17 -3 -45 -12 -62 -20
-236 -100 -710 -127 -1040 -58 -114 24 -366 95 -405 115 -8 4 -51 22 -95 40
-44 18 -86 37 -94 43 -16 12 -40 26 -99 56 -24 13 -46 29 -49 36 -3 8 -11 14
-17 14 -14 0 -61 48 -69 71 -14 42 27 48 99 14 88 -42 252 -91 479 -145 28 -6
109 -16 180 -21 l130 -9 170 10 c167 9 255 20 345 42 25 6 63 14 85 18 367 68
818 353 1054 666 l76 101 57 114 c77 156 81 167 132 381 l16 66 0 115 0 114
-20 94 c-33 155 -56 228 -100 309 -13 25 -33 63 -44 85 -43 87 -161 224 -247
288 l-36 27 -240 0 -239 0 -16 13 c-8 6 -22 23 -32 37 l-16 24 0 41 0 40 30
54 c45 81 41 85 -120 146 -25 10 -60 24 -77 31 -18 8 -48 20 -65 28 -18 7 -51
20 -73 29 -315 120 -450 199 -543 318 l-46 60 -18 57 c-92 295 166 542 565
542 l83 0 92 -20 c51 -11 101 -25 110 -30 142 -81 264 -56 307 61 7 19 23 63
35 99 l24 65 0 97 1 96 -24 26 c-13 14 -39 29 -58 32 -18 3 -36 10 -39 15 -3
5 -15 9 -27 9 -12 0 -42 6 -67 14 -25 8 -72 21 -105 30 -33 8 -79 20 -103 26
-94 24 -228 40 -355 41 l-132 1 -106 -16 c-346 -52 -687 -260 -854 -520 -42
-65 -113 -231 -148 -346 l-20 -65 -4 -135 -4 -135 20 -95 c44 -208 158 -413
293 -525 18 -15 51 -44 73 -65 87 -80 265 -184 470 -275 33 -15 78 -35 100
-45 22 -10 60 -26 85 -35 25 -10 68 -28 95 -40 28 -13 75 -33 105 -45 30 -13
78 -33 107 -46 29 -13 62 -29 75 -34 241 -105 373 -256 415 -475 l15 -80 -12
-104 c-12 -102 -22 -136 -61 -216 -39 -79 -63 -112 -130 -182 -54 -56 -265
-203 -291 -203 -9 0 -21 -7 -28 -15 -7 -8 -17 -15 -22 -15 -6 0 -24 -6 -41
-14 -136 -58 -298 -98 -481 -117 l-118 -12 -137 12 c-123 10 -198 23 -316 52
-22 6 -56 14 -75 19 -67 16 -309 114 -384 154 -22 13 -68 38 -101 56 -321 176
-640 545 -752 870 l-15 44 0 75 0 75 18 13 c10 7 26 13 35 13 l18 0 53 -62
c28 -35 106 -116 173 -181 l120 -118 85 -58 c87 -59 138 -88 200 -115 19 -8
55 -23 80 -34 50 -21 70 -19 70 8 l0 18 -67 63 c-269 254 -413 441 -538 699
-20 41 -42 88 -50 103 -8 16 -15 33 -15 39 0 5 -7 24 -15 41 -26 56 -66 210
-76 292 -5 44 -14 96 -18 115 -35 140 -14 492 39 685 53 191 140 388 235 535
47 74 77 122 102 165 25 41 104 115 124 115 9 0 30 7 45 15 16 8 35 15 42 15
14 0 17 -36 3 -44 -4 -3 -11 -20 -14 -38 l-5 -33 -94 -141 c-127 -191 -194
-328 -257 -526 -18 -58 -41 -222 -47 -348 l-6 -115 16 -125 c17 -131 31 -186
76 -310 l27 -75 18 -3 c9 -2 21 0 27 6 l9 9 -22 89 -22 89 -1 175 -1 175 13
85 c33 213 113 460 149 460 24 0 26 -30 8 -93 l-18 -62 -5 -102 -5 -102 19
-68 c9 -37 33 -92 51 -121 l34 -53 22 3 22 3 2 207 1 207 17 73 c59 262 112
393 209 524 173 231 335 383 538 503 80 47 260 131 281 131 5 0 23 6 40 14
128 57 328 93 566 103 l144 5 111 -16 c104 -16 155 -27 281 -61 270 -72 563
-213 705 -341 190 -171 440 -455 440 -500 0 -4 17 -34 38 -68 21 -34 42 -69
45 -79 l7 -18 17 3 18 3 3 39 3 39 -21 61 c-151 424 -443 780 -848 1034 -45
29 -86 52 -89 52 -4 0 -14 6 -22 14 -45 38 -242 124 -471 205 -53 19 -140 43
-185 51 -22 4 -58 12 -80 18 -194 52 -526 73 -795 50z m-131 -90 l9 -23 -13
-20 -12 -20 -48 0 -48 0 -11 17 -10 17 24 26 23 25 39 0 39 0 8 -22z m219 -40
l16 -27 -9 -27 c-6 -15 -23 -35 -40 -45 l-30 -18 -48 0 -49 -1 -19 23 c-50 59
13 128 114 124 l48 -2 17 -27z m617 -14 l25 -16 0 -23 0 -23 -31 -26 -31 -26
-38 0 -39 0 -15 22 c-22 32 -20 55 9 83 l24 25 36 0 c20 0 47 -7 60 -16z
m-919 -66 l46 -13 25 -29 24 -29 -3 -21 -3 -21 -40 -22 c-48 -26 -78 -28 -95
-8 l-12 15 -47 0 -48 0 -23 25 -24 25 10 28 9 27 35 17 c41 21 83 23 146 6z
m-310 -207 l52 -7 16 -17 17 -17 25 6 24 6 0 -27 0 -27 -23 5 c-12 4 -29 2
-37 -3 l-14 -9 19 -7 c49 -19 79 -78 45 -89 l-20 -6 -31 25 c-41 35 -52 33
-109 -15 l-49 -41 -6 -38 -6 -38 -16 -6 c-18 -7 -43 10 -43 29 0 20 -28 26
-45 9 -20 -20 -19 -40 2 -48 l17 -7 -24 -12 -25 -13 -5 21 -6 20 -24 0 -25 0
-3 -23 -4 -23 -24 -10 c-14 -5 -36 -9 -50 -9 l-24 0 0 19 c0 26 38 71 61 71
l19 0 0 14 c0 8 -8 24 -18 36 l-18 23 -22 -12 c-27 -14 -32 -14 -32 2 0 8 11
19 24 25 l23 10 7 46 7 46 23 0 c13 0 29 7 37 16 l13 15 19 -5 20 -5 28 30
c15 16 36 29 47 29 12 0 24 5 27 10 7 11 57 12 131 1z m-648 -324 l3 -14 -31
-13 -31 -13 5 -13 5 -14 -17 0 -18 0 -17 30 -18 30 11 19 c5 11 18 25 28 30
l17 10 30 -19 c17 -11 31 -25 33 -33z m-108 -93 c0 -15 -7 -32 -17 -39 l-16
-12 7 -11 c4 -7 16 -12 26 -12 l19 0 3 27 c4 37 24 40 42 6 8 -15 29 -42 45
-60 35 -37 40 -49 12 -31 l-20 12 -21 -19 -21 -19 -21 13 -20 12 -39 -6 -40
-7 6 -18 6 -19 -20 -11 -20 -10 -33 29 -33 30 13 12 12 13 30 -11 c16 -6 31
-9 33 -6 11 10 -7 43 -25 49 l-20 6 -9 -13 -8 -14 -10 10 -11 11 16 22 15 22
23 0 c26 0 46 17 46 41 0 17 13 27 38 28 l12 1 0 -26z m2726 -209 c12 -8 24
-25 28 -39 l6 -26 -30 -89 c-16 -50 -30 -99 -30 -110 0 -47 -77 -161 -108
-161 -8 0 -36 8 -64 18 l-49 17 -5 22 c-6 22 7 73 32 130 8 17 14 36 14 41 0
24 65 179 84 200 l21 24 40 -7 c22 -3 50 -12 61 -20z m-2876 -115 c79 -79 -87
-275 -169 -199 l-23 22 5 38 c12 92 68 157 135 158 l32 1 20 -20z m1843 -56
c10 -13 17 -32 15 -42 l-3 -17 -47 0 -46 -1 -41 -27 c-22 -15 -44 -27 -48 -27
-16 0 -83 -54 -83 -67 0 -7 -8 -16 -17 -20 -25 -9 -87 -75 -110 -115 -10 -18
-23 -40 -29 -48 -14 -18 -48 -134 -63 -216 -38 -206 41 -442 208 -617 57 -60
192 -167 211 -167 6 0 13 -7 16 -15 4 -8 12 -15 19 -15 38 0 61 -64 27 -74
-27 -9 -160 41 -257 96 -54 31 -88 58 -158 126 l-59 56 -49 84 c-27 45 -49 88
-49 95 0 7 -4 17 -8 22 -16 19 -41 101 -58 190 l-16 89 6 36 c4 19 11 63 16
98 6 34 14 70 19 80 5 9 26 51 46 92 49 101 191 270 226 270 5 0 9 4 9 8 0 25
237 150 285 151 l20 0 18 -25z m-2205 -259 c8 -53 14 -67 37 -77 29 -13 30
-24 11 -96 l-13 -52 26 -19 26 -19 -18 -19 c-9 -11 -14 -22 -11 -25 3 -4 -2
-18 -12 -33 l-18 -27 3 -55 3 -56 -38 -34 c-21 -18 -48 -33 -60 -33 -29 0 -42
-17 -49 -65 l-7 -40 31 -12 31 -11 0 -26 c0 -13 -4 -28 -10 -31 -15 -9 -12
-21 15 -53 13 -16 22 -32 18 -36 -12 -12 -44 -6 -49 9 -4 8 -14 15 -24 15 -10
0 -23 7 -30 15 -7 8 -20 15 -29 15 -9 0 -42 24 -73 54 l-58 53 0 18 c0 10 8
27 17 37 l17 19 -2 39 c-3 39 11 75 37 96 l14 11 -6 34 c-3 19 -9 46 -12 61
l-7 27 21 27 21 27 -11 13 -12 14 27 21 c27 21 106 153 106 177 0 7 8 24 18
38 l17 24 25 -3 25 -2 3 -20z m-230 -1192 l1 -124 23 -42 23 -42 50 -9 c94
-16 150 -36 178 -61 l27 -26 0 -48 0 -48 -22 -29 c-12 -16 -27 -32 -33 -36
l-10 -7 18 -31 c36 -61 47 -85 47 -108 0 -41 -38 -109 -84 -149 l-45 -40 -52
-16 -51 -17 -65 0 -66 0 -33 21 -34 20 -30 64 -30 63 0 34 0 34 -45 44 c-24
24 -47 56 -50 71 l-6 28 11 23 c7 13 44 53 82 90 l71 67 -7 93 c-3 51 -11 109
-16 128 -6 19 -13 71 -16 115 l-5 80 10 14 10 15 48 6 48 6 26 -30 26 -30 1
-123z m2652 47 c22 -22 60 -26 77 -9 l10 10 16 -15 c9 -9 25 -16 37 -16 32 0
60 -18 60 -39 l0 -19 -20 -5 -20 -5 0 -19 0 -18 30 -13 c16 -8 42 -27 57 -43
28 -29 56 -36 83 -19 l14 9 12 -10 12 -10 -9 -32 -9 -32 18 -15 c10 -8 23 -28
30 -43 l12 -28 -14 -5 c-16 -6 -66 33 -66 53 0 7 -4 13 -10 13 -5 0 -10 -7
-10 -15 0 -20 -6 -19 -57 10 -43 26 -52 38 -33 50 l11 7 -12 14 c-6 8 -21 14
-34 14 -12 0 -39 15 -61 34 l-39 33 -17 -10 -17 -11 -20 25 -20 24 6 20 c3 11
8 25 10 31 l4 11 -46 6 c-26 2 -52 10 -58 16 l-11 11 17 18 c9 10 17 24 17 30
0 19 28 14 50 -8z m532 -365 l-4 -45 -20 -11 c-11 -6 -26 -8 -34 -5 l-14 5 0
26 c0 14 5 25 10 25 6 0 16 11 22 25 6 14 18 25 27 25 l16 0 -3 -45z m114 -60
l22 -6 5 -24 4 -25 -11 0 c-27 2 -110 28 -113 36 -4 12 37 32 57 28 8 -1 25
-5 36 -9z m329 -5 c3 -5 14 -10 23 -10 25 0 152 -129 186 -189 5 -9 15 -21 21
-28 53 -52 123 -252 137 -387 l11 -100 -11 -102 c-6 -56 -15 -112 -20 -125 -5
-13 -18 -51 -28 -84 -9 -33 -24 -67 -31 -76 -7 -8 -13 -23 -13 -31 0 -9 -7
-21 -15 -28 -8 -7 -15 -18 -15 -25 0 -18 -48 -48 -66 -41 l-14 5 0 35 c0 19 6
47 14 63 17 34 39 92 57 153 l13 45 0 175 1 175 -13 55 c-11 51 -22 82 -60
170 -27 64 -80 135 -167 224 -78 80 -97 111 -78 129 10 11 61 8 68 -3z m-71
-219 c32 -30 33 -41 2 -41 -44 0 -62 30 -49 79 l6 25 8 -20 c4 -10 19 -30 33
-43z m-3303 -651 c23 -19 60 -52 81 -73 l39 -39 -3 -16 c-2 -10 -13 -21 -26
-27 -25 -11 -29 -40 -7 -49 15 -5 21 -37 8 -49 -3 -4 -12 2 -20 13 l-14 19
-29 -5 -29 -6 -25 25 c-14 15 -26 35 -26 45 0 23 -28 82 -40 82 -4 0 -13 13
-20 30 l-12 30 6 24 6 25 28 4 c38 5 37 6 83 -33z m3459 -254 c6 -8 21 -16 32
-18 l20 -3 -20 -25 -20 -25 -11 27 c-5 14 -15 29 -20 33 -13 8 -14 25 -2 25 5
0 14 -6 21 -14z m-29 -96 c25 -14 24 -27 -2 -35 -11 -4 -24 -18 -29 -31 -5
-13 -14 -24 -20 -24 -5 0 -10 -7 -10 -16 l0 -16 -12 5 -13 4 3 39 3 39 21 23
c24 25 31 26 59 12z m-177 -321 l26 -20 0 -25 0 -24 -27 -28 c-83 -84 -299
-217 -398 -245 -11 -3 -47 -16 -80 -27 -127 -46 -268 -76 -420 -91 l-110 -11
-175 6 -175 6 -75 15 c-112 23 -185 46 -211 67 l-24 18 20 15 19 15 61 -6 c33
-3 121 -9 195 -13 l135 -8 115 9 c129 10 160 14 437 67 28 5 61 14 72 20 11 6
27 11 36 11 9 0 31 6 48 14 18 7 57 24 87 36 121 49 255 119 295 153 22 19
101 66 111 66 6 1 23 -8 38 -20z m21 -200 l0 -24 -23 -3 -22 -3 -7 17 -6 17
18 14 c26 18 40 12 40 -18z m-2206 -34 c7 -17 20 -43 27 -58 8 -16 14 -35 14
-43 l0 -14 -33 0 c-18 0 -39 -6 -45 -12 l-12 -12 -20 12 -20 12 -20 -10 c-37
-20 -19 -54 37 -69 l28 -7 3 -23 4 -23 -18 -19 c-18 -20 -49 -25 -59 -9 -3 6
-22 10 -41 10 l-34 0 0 34 c0 19 9 56 21 83 11 26 22 66 23 88 l2 40 20 3 c10
2 24 9 29 16 34 42 74 43 94 1z m-235 -81 c9 -8 16 -25 16 -36 l0 -20 -20 -5
-21 -5 6 -18 c3 -10 1 -21 -5 -25 -5 -3 -10 -2 -10 4 0 5 -12 16 -27 23 -14 7
-31 21 -37 31 l-11 18 28 25 c32 28 59 31 81 8z"/>
<path d="M4665 8860 c-10 -45 -41 -84 -110 -140 -75 -61 -73 -75 19 -130 l39
-23 56 0 56 0 40 21 c51 27 95 67 129 116 43 64 31 93 -40 99 -21 2 -52 9 -67
15 -16 7 -37 12 -47 12 -19 0 -29 8 -54 44 l-14 20 -7 -34z"/>
<path d="M4846 8546 l-16 -25 15 -34 c7 -18 21 -40 30 -47 l17 -14 9 15 c10
17 11 54 3 98 l-6 31 -18 0 c-10 0 -25 -11 -34 -24z"/>
<path d="M4605 8468 c11 -57 16 -68 26 -63 5 4 9 26 9 51 l0 44 -21 0 -21 0 7
-32z"/>
<path d="M8291 11766 c-14 -15 -42 -31 -63 -38 l-38 -11 -20 -35 c-12 -19 -18
-41 -15 -50 l5 -14 15 12 15 12 32 -5 33 -5 16 15 17 14 27 -7 28 -7 -17 -9
c-33 -19 7 -60 68 -70 28 -4 31 -24 4 -31 l-22 -6 35 -23 c19 -13 52 -33 74
-45 22 -11 56 -30 75 -42 52 -31 60 -34 68 -27 3 4 1 16 -6 26 -17 28 -16 30
26 30 l39 0 15 -17 c9 -10 19 -37 23 -60 l7 -43 21 0 22 0 17 46 16 46 -35 65
-35 64 6 30 6 30 -15 28 c-7 15 -11 37 -8 49 l5 21 -26 25 c-30 31 -60 33 -83
6 -24 -28 -36 -25 -80 15 l-38 36 -30 -7 c-34 -8 -62 -8 -120 1 l-40 7 -24
-26z m236 -153 c3 -10 19 -30 35 -45 15 -15 28 -34 28 -44 l0 -17 -46 6 -46 5
-21 21 -21 20 17 36 17 35 15 0 c9 0 18 -8 22 -17z"/>
<path d="M4497 11344 c-72 -17 -105 -40 -152 -104 l-36 -49 -11 -61 -10 -61
12 -47 c25 -92 73 -151 148 -183 l44 -19 64 0 65 0 42 19 c46 21 112 86 142
141 l19 35 0 70 1 70 -23 43 c-13 24 -42 61 -65 84 l-43 41 -59 18 c-69 22
-63 22 -138 3z m141 -145 c13 -8 32 -29 44 -47 l21 -34 -7 -56 -7 -56 -16 -18
-16 -18 -18 5 -18 6 -11 -21 -11 -20 -44 0 -44 0 -36 36 c-45 45 -55 70 -48
125 l5 44 36 37 35 37 56 -3 c31 -1 66 -9 79 -17z"/>
<path d="M4535 11099 l-7 -21 15 -15 15 -16 16 6 c37 15 26 67 -15 67 l-18 0
-6 -21z"/>
<path d="M6920 11077 c-94 -34 -208 -96 -253 -139 l-39 -37 7 -10 c8 -14 42
-14 51 0 13 22 200 98 279 114 17 3 45 14 63 25 l32 20 0 19 c0 38 -48 40
-140 8z"/>
<path d="M8333 10577 c-5 -6 -15 -32 -22 -57 -7 -25 -19 -58 -26 -75 -40 -94
-47 -114 -41 -124 l7 -11 19 10 c10 5 42 12 72 16 l55 6 39 -18 c40 -18 93
-53 172 -111 47 -36 73 -41 91 -19 l11 14 -9 24 c-10 26 -305 329 -338 346
l-21 12 -9 -13z"/>
<path d="M4237 10402 c-10 -10 -17 -33 -17 -50 l0 -32 -37 0 c-21 0 -44 -4
-51 -9 l-14 -8 4 -29 3 -29 45 -5 44 -5 16 -44 c21 -62 70 -66 70 -6 0 13 3
30 6 39 l6 16 27 0 c15 0 35 6 45 13 l18 14 -6 21 -7 22 -29 0 c-16 0 -35 3
-44 6 l-16 6 0 39 0 38 -19 11 c-25 13 -25 13 -44 -8z"/>
<path d="M6059 10369 c-18 -18 -47 -75 -89 -174 -16 -37 -33 -133 -27 -150 l7
-16 20 11 20 11 0 22 c0 34 37 132 82 219 47 91 40 130 -13 77z"/>
<path d="M9235 10116 c-35 -15 -55 -52 -55 -101 l0 -34 19 -6 c11 -3 25 -12
31 -20 l12 -15 -12 -15 -13 -15 -18 5 -18 6 -11 -21 c-15 -29 -5 -40 39 -40
l39 0 12 15 c18 21 30 9 30 -30 0 -45 16 -52 35 -15 l16 30 18 0 c11 0 33 11
49 24 l29 25 33 -21 34 -20 72 -4 73 -4 7 11 7 12 -17 9 c-22 13 -20 23 8 36
l24 11 7 30 6 30 -11 20 -11 21 -29 0 c-17 0 -40 -6 -51 -12 l-22 -13 -4 13
c-7 19 -40 14 -63 -10 l-20 -22 -11 11 c-14 14 -3 33 17 33 l15 0 -3 17 c-4
22 -38 30 -49 11 -5 -7 -6 -20 -3 -30 7 -24 -14 -33 -35 -14 -36 33 -101 15
-101 -28 l0 -19 -17 15 c-10 8 -26 18 -35 21 -10 4 -18 13 -18 21 l0 15 40 11
40 11 0 14 c0 12 -37 46 -50 45 -3 -1 -19 -7 -35 -14z"/>
<path d="M9936 10035 c-9 -9 -16 -29 -16 -44 0 -15 -7 -51 -16 -80 -8 -29 -13
-59 -10 -67 l5 -14 100 0 99 0 15 23 c8 13 18 46 22 73 4 27 12 54 17 61 5 7
8 22 6 35 l-3 23 -101 3 -102 3 -16 -16z"/>
<path d="M8670 9980 l-215 -6 -33 -12 c-19 -6 -53 -27 -76 -45 l-42 -35 -28
-58 c-83 -169 -81 -333 4 -394 l33 -24 136 -4 136 -4 29 -15 28 -15 -4 -59 -4
-60 -27 -27 -28 -27 -212 0 -212 0 -17 -35 -18 -35 0 -47 0 -48 243 0 242 0
46 14 c130 40 174 87 228 246 7 19 15 67 18 105 l6 71 -21 41 -21 41 -34 21
-34 21 -140 0 -140 0 -27 25 c-30 27 -30 30 -15 90 l11 43 27 26 27 26 208 2
209 3 18 65 c10 36 18 75 19 86 l0 21 -37 7 c-21 3 -45 5 -53 4 -8 -1 -112 -5
-230 -8z"/>
<path d="M9091 9718 c-5 -13 -17 -63 -26 -113 -9 -49 -22 -117 -29 -150 -8
-33 -21 -96 -31 -140 -24 -115 -43 -193 -60 -250 -31 -106 -74 -298 -69 -306
3 -5 55 -9 115 -9 l110 0 3 13 c3 6 12 57 22 112 10 55 23 116 29 135 l12 34
134 1 134 0 50 28 c100 57 146 129 179 282 10 44 22 93 27 109 5 16 9 56 9 90
l0 61 -23 40 -22 40 -40 22 -40 23 -68 0 -69 0 -36 -17 c-21 -9 -48 -25 -61
-35 -13 -10 -30 -18 -37 -18 l-13 0 -3 33 -3 32 -93 3 -92 3 -9 -23z m347
-148 l32 -20 0 -38 c0 -65 -55 -256 -86 -297 l-14 -19 -82 -1 -83 0 -3 18 c-6
28 68 325 84 338 45 37 109 45 152 19z"/>
<path d="M10368 9722 l-57 -17 -39 -37 c-58 -55 -75 -94 -121 -268 -17 -63
-31 -208 -24 -245 9 -47 28 -71 79 -96 l48 -23 163 -4 163 -5 28 12 29 12 11
50 c7 28 12 61 12 75 l0 24 -145 0 -145 0 -11 27 -10 27 12 71 c22 138 58 230
93 239 12 3 80 6 152 6 l132 0 10 13 c5 6 18 38 28 69 l17 57 -13 15 -12 16
-172 -1 -171 -1 -57 -16z"/>
<path d="M11100 9733 c-14 -3 -49 -11 -79 -20 l-53 -15 -40 -36 c-66 -60 -124
-231 -144 -429 l-6 -62 21 -44 22 -45 52 -22 52 -23 198 2 c249 2 240 -2 241
111 l1 45 -168 0 -168 0 -15 19 c-19 27 -18 60 4 79 l18 17 189 2 189 3 16 45
c24 62 42 137 48 188 l4 42 -20 43 c-27 57 -48 74 -117 92 l-59 15 -81 -1
c-44 -1 -91 -4 -105 -6z m146 -168 l24 -15 0 -28 c0 -15 -9 -41 -19 -59 l-20
-31 -79 -1 -79 0 -16 12 -17 12 10 36 c25 91 118 126 196 74z"/>
<path d="M9876 9708 c-9 -12 -16 -32 -16 -44 0 -12 -6 -49 -14 -81 -8 -32 -21
-94 -30 -138 -17 -81 -36 -160 -61 -250 -32 -117 -36 -136 -30 -145 l6 -10
103 0 104 0 9 13 c5 6 15 44 22 82 12 68 27 143 55 275 8 36 22 101 31 145 9
44 20 97 26 118 5 20 7 42 4 47 l-6 10 -94 0 -94 0 -15 -22z"/>
<path d="M5847 9623 c-4 -3 -7 -19 -7 -35 l0 -29 27 3 28 3 4 19 3 20 -18 13
c-20 15 -28 16 -37 6z"/>
<path d="M5862 9364 l-22 -15 0 -54 0 -53 19 -44 c48 -113 111 -186 202 -237
75 -42 118 -39 177 13 l22 19 0 27 c0 31 -14 46 -106 120 -38 30 -108 93 -155
139 -47 46 -93 87 -101 92 l-15 8 -21 -15z"/>
<path d="M13151 9301 c-6 -11 -11 -30 -11 -44 l0 -24 -24 -22 c-14 -13 -46
-33 -73 -46 -26 -12 -64 -39 -84 -59 l-36 -36 -16 -50 -16 -50 6 -30 c3 -17
22 -49 42 -73 54 -61 95 -125 115 -180 l18 -48 -4 -72 -4 -72 -27 -55 c-14
-30 -38 -72 -52 -93 l-27 -39 34 7 c18 4 45 15 60 26 15 10 30 19 33 19 11 0
70 45 121 93 l51 48 29 57 29 57 -1 76 -1 76 -16 24 c-10 13 -36 38 -59 57
-86 68 -93 100 -47 239 l32 95 -13 42 c-7 22 -16 52 -19 65 -9 32 -27 37 -40
12z"/>
<path d="M12602 9225 c-53 -44 -114 -161 -147 -279 l-16 -58 5 -64 c7 -83 32
-157 75 -224 20 -30 38 -60 41 -66 7 -17 107 -100 170 -142 30 -20 74 -51 97
-69 l41 -33 17 6 c22 9 59 92 80 179 l17 70 -5 62 -6 62 -24 38 c-38 59 -91
101 -202 161 -37 20 -84 70 -107 115 l-20 41 5 69 c2 37 10 74 16 80 13 13 15
64 2 71 -5 4 -23 -5 -39 -19z"/>
<path d="M12112 8968 c-7 -7 -12 -28 -12 -47 l0 -36 20 -30 c10 -16 30 -37 42
-47 l23 -17 -23 -42 -24 -41 1 -86 1 -86 26 -69 27 -69 56 -58 c58 -59 89 -77
196 -111 96 -30 245 -16 298 29 26 23 23 27 -70 71 l-88 42 -53 55 c-61 65
-104 150 -145 289 -15 53 -18 55 -89 81 -58 20 -108 67 -139 129 -27 54 -32
58 -47 43z"/>
<path d="M6603 8702 c-6 -4 -25 -49 -42 -100 l-31 -92 -1 -68 c-2 -87 -4 -89
-48 -49 -20 18 -68 48 -107 66 -38 18 -78 37 -90 43 -11 5 -36 10 -55 11 l-34
2 -3 -27 -3 -27 40 -69 c64 -110 132 -170 214 -187 l28 -6 -6 -9 -6 -10 -68 2
-67 3 -44 -35 c-25 -19 -51 -40 -58 -48 -8 -7 -29 -24 -48 -39 l-35 -26 3 -31
3 -31 55 -8 c30 -5 94 -7 142 -4 l88 4 15 13 c8 6 19 9 25 5 6 -4 20 1 30 10
l20 18 6 -16 c3 -8 -1 -26 -10 -39 -8 -13 -18 -55 -22 -95 l-7 -72 18 -76 c10
-41 24 -80 31 -85 l12 -11 30 32 c40 43 96 151 111 217 16 65 24 70 51 32 24
-34 71 -66 170 -117 72 -37 83 -39 100 -19 l11 15 -14 33 c-8 18 -25 58 -37
88 -13 30 -40 72 -59 92 -42 46 -44 43 54 58 44 7 99 21 123 31 l42 19 0 15
c0 21 -34 40 -124 69 l-79 26 -48 0 -49 0 0 10 c0 6 10 14 23 19 65 26 187
193 187 257 l0 24 -26 0 c-45 0 -214 -91 -267 -145 -24 -24 -29 -18 -22 28 l6
42 -15 55 c-46 171 -76 225 -113 202z m42 -189 c3 -16 10 -41 14 -58 5 -16 12
-47 16 -68 l6 -37 -17 -60 -16 -59 6 -18 7 -18 19 26 c51 68 150 153 203 172
l17 6 0 -16 c0 -15 -35 -51 -158 -164 l-50 -47 -34 7 -33 7 -14 29 c-38 79
-24 325 19 325 5 0 12 -12 15 -27z m-278 -135 c15 -7 31 -17 35 -22 3 -5 17
-10 30 -12 34 -4 34 -4 18 -14 l-14 -9 23 -25 c13 -14 28 -23 32 -20 14 8 10
24 -6 24 -8 0 -15 5 -15 10 0 21 26 8 55 -27 17 -20 40 -47 53 -61 l22 -25
-11 -13 -10 -13 -17 6 c-9 4 -33 19 -53 35 -20 15 -40 28 -44 28 -14 0 -144
133 -139 142 7 10 8 10 41 -4z m231 -246 c-2 -8 -18 -22 -35 -32 -18 -10 -38
-22 -45 -27 -26 -18 -114 -42 -168 -45 l-55 -3 0 14 0 15 28 7 c16 4 34 12 40
17 7 6 29 13 49 17 43 8 41 25 -3 25 -16 0 -29 4 -29 9 0 13 38 18 138 18 l83
0 -3 -15z m337 8 l27 -10 -4 -13 -5 -12 -67 -3 -68 -3 -54 16 c-30 8 -54 20
-54 25 l0 10 99 0 c55 0 112 -5 126 -10z m-288 -122 c-9 -123 -42 -238 -68
-238 -19 0 -17 59 10 240 l10 65 17 12 c10 7 22 13 27 13 l10 0 -6 -92z m98
40 c24 -24 59 -57 78 -74 31 -28 94 -124 82 -124 -38 0 -225 185 -225 223 0
27 19 20 65 -25z"/>
<path d="M9588 8404 l-68 -15 -45 -30 c-160 -108 -274 -423 -220 -607 l15 -51
29 -27 c16 -15 51 -35 78 -46 l48 -18 150 0 c177 0 216 -5 246 -33 l21 -20 -5
-63 -5 -63 -18 -32 c-11 -18 -31 -41 -45 -52 l-27 -19 -78 -1 c-44 0 -173 1
-288 2 l-209 2 -15 -14 c-8 -8 -25 -59 -39 -112 l-24 -98 13 -11 13 -12 360 6
360 6 79 39 79 38 45 45 c54 55 68 87 133 290 6 17 13 72 16 120 l6 88 -21 39
c-28 55 -68 90 -125 109 l-48 16 -183 0 -183 0 -21 23 -22 23 1 60 1 59 21 39
c12 22 35 49 50 60 l29 21 268 -3 267 -2 11 12 c14 18 51 175 52 221 l0 27
-317 -1 -318 -1 -67 -14z"/>
<path d="M14028 8333 l-116 -4 -16 -40 c-9 -21 -16 -54 -16 -72 0 -17 -9 -59
-19 -92 l-19 -60 -53 -5 -52 -5 -19 -75 c-10 -41 -18 -86 -18 -99 l0 -24 40 6
40 5 10 -18 9 -17 -9 -54 c-5 -30 -16 -79 -24 -109 -8 -30 -27 -100 -41 -155
l-27 -100 -1 -107 -2 -107 30 -31 c17 -18 48 -41 70 -52 l40 -21 145 -4 c80
-3 163 -1 185 4 l40 9 18 49 c10 28 19 75 20 105 l2 55 -90 -3 -90 -3 -20 14
-19 15 2 68 c1 37 6 81 11 98 5 17 19 76 31 131 12 55 27 125 34 155 l12 55
118 2 c65 1 122 5 125 10 12 13 30 84 37 146 l7 57 -14 1 c-8 1 -61 2 -119 3
l-105 1 3 15 c2 8 7 32 12 55 4 22 16 70 25 107 10 37 15 74 12 82 l-6 16 -33
-2 c-18 -1 -85 -4 -150 -5z"/>
<path d="M10660 8065 c-69 -15 -111 -37 -174 -89 l-48 -41 -32 -65 c-38 -76
-62 -152 -105 -335 -7 -27 -15 -93 -18 -146 l-6 -96 18 -49 c24 -64 55 -97
119 -125 l51 -23 239 -4 c131 -2 258 -1 281 2 l42 7 15 52 c9 29 19 75 23 104
l7 51 -22 7 c-12 4 -106 4 -209 0 l-187 -7 -27 31 -26 32 5 67 c4 37 12 89 20
116 8 27 14 60 14 72 0 13 6 38 14 56 8 18 17 45 21 60 3 15 23 46 45 69 l39
41 205 -4 205 -3 14 15 c8 8 22 55 31 105 l17 89 -18 14 -18 13 -240 -2 -240
-2 -55 -12z"/>
<path d="M11900 8066 c-56 -12 -136 -52 -160 -80 -7 -9 -21 -16 -33 -16 l-20
0 6 39 5 39 -11 11 -11 11 -138 0 -138 0 -10 -22 c-6 -13 -17 -61 -24 -108 -8
-47 -20 -107 -26 -135 -6 -27 -18 -77 -25 -110 -15 -64 -36 -162 -61 -285 -27
-130 -45 -203 -62 -253 l-16 -48 14 -9 c8 -6 81 -10 163 -10 l147 0 9 23 c5
12 14 49 21 82 6 33 17 87 25 120 7 33 21 105 30 160 56 326 64 333 397 345
13 0 30 42 38 94 5 28 14 69 21 92 7 23 9 48 6 57 l-6 17 -43 -1 c-24 0 -68
-6 -98 -13z"/>
<path d="M13211 8069 l-64 -8 -41 -28 c-89 -60 -100 -61 -90 -6 l6 34 -148 -3
-149 -3 -12 -65 c-21 -110 -40 -194 -52 -223 -6 -16 -11 -39 -11 -53 0 -13 -4
-32 -9 -42 -8 -15 -36 -129 -56 -227 -6 -33 -25 -115 -48 -215 -8 -36 -26
-103 -40 -150 -13 -47 -27 -101 -31 -120 -3 -19 -15 -66 -27 -105 -11 -38 -26
-92 -32 -119 l-11 -48 15 -12 16 -11 142 5 142 5 14 25 c13 25 27 83 46 190
22 128 35 186 43 199 l9 13 131 -6 131 -7 66 9 66 10 57 28 c74 36 138 100
176 174 44 87 50 106 111 369 5 25 13 79 16 121 l6 76 -22 49 c-45 102 -90
129 -256 149 -16 2 -59 0 -94 -5z m18 -244 l26 -26 -2 -72 -2 -72 -22 -80
c-49 -181 -63 -215 -103 -246 l-29 -23 -106 -4 -107 -4 -11 13 -12 14 14 55
c7 30 28 118 45 195 18 77 36 147 40 156 5 9 12 32 15 51 l6 34 22 14 c32 20
85 29 146 25 l54 -4 26 -26z"/>
<path d="M12191 8022 c-6 -21 -13 -54 -16 -73 -3 -18 -12 -59 -20 -89 -7 -30
-21 -89 -30 -130 -16 -74 -34 -148 -60 -245 -7 -27 -21 -84 -30 -125 -10 -41
-28 -113 -41 -159 l-24 -84 12 -15 13 -15 149 7 149 6 13 11 c8 6 14 22 14 35
0 34 35 218 76 399 30 133 43 193 59 265 20 94 45 189 55 217 13 32 8 33 -156
33 l-153 0 -10 -38z"/>
<path d="M7711 7926 c-28 -45 -26 -67 7 -99 l28 -27 26 0 c14 0 37 9 52 21
l26 20 0 38 0 38 -23 21 -23 22 -36 0 -36 0 -21 -34z"/>
<path d="M5460 7915 c0 -44 253 -305 323 -335 11 -4 49 -27 112 -67 72 -45
105 -48 105 -9 0 27 -19 46 -140 135 -52 38 -99 74 -105 78 -5 5 -28 22 -50
38 -22 16 -76 59 -120 96 -44 36 -90 70 -102 73 l-23 7 0 -16z"/>
<path d="M7293 7617 c-23 -12 -88 -51 -145 -86 l-102 -63 -53 -14 -54 -14 -93
0 -94 0 -5 -14 -6 -14 22 -19 c51 -46 131 -78 246 -99 l95 -17 89 7 c181 12
253 49 313 157 12 22 27 45 33 53 7 8 11 30 9 48 l-3 33 -20 3 c-11 2 -24 9
-30 15 -5 7 -22 20 -37 30 l-27 17 -48 -1 -48 0 -42 -22z m180 -61 l17 -13 0
-42 0 -41 -25 0 -24 0 -11 39 c-16 62 3 87 43 57z"/>
<path d="M5232 7288 c-42 -21 -1 -42 142 -74 21 -5 44 -17 50 -27 l11 -18 -20
-15 -20 -15 -45 6 c-51 8 -118 32 -141 52 -39 33 -62 2 -96 -123 l-18 -69 0
-95 c2 -386 249 -731 561 -782 117 -20 124 7 23 88 -39 31 -92 83 -117 116
l-47 60 -31 78 c-18 42 -40 117 -49 165 l-18 88 12 116 c13 121 19 160 45 276
l16 70 -18 24 c-25 34 -118 80 -172 86 l-45 5 -23 -12z m-41 -381 l8 -29 -10
-25 -9 -24 -18 3 -17 3 -3 39 c-4 48 3 68 25 64 l17 -3 7 -28z"/>
<path d="M4631 7239 l-20 -22 -7 -44 c-4 -25 -4 -70 0 -100 l6 -55 30 -59 c36
-74 38 -76 137 -175 l81 -83 21 6 c28 7 41 -30 -100 298 -10 23 -74 192 -82
217 -3 9 -15 22 -26 27 l-20 11 -20 -21z"/>
<path d="M6223 6000 c-105 -22 -188 -105 -212 -212 l-10 -45 10 -62 10 -62 23
-37 c31 -48 52 -67 106 -91 l45 -21 73 0 73 0 47 21 c86 39 126 89 153 191
l18 71 -17 56 -17 56 -56 57 -55 56 -40 11 c-61 17 -105 20 -151 11z m143
-141 c129 -87 60 -279 -100 -279 l-31 0 -38 31 c-21 17 -47 49 -58 71 l-20 40
11 48 11 48 22 20 c12 11 36 27 52 36 l30 16 43 -4 42 -4 36 -23z"/>
<path d="M6251 5756 l-12 -14 13 -21 c16 -26 34 -27 47 -2 l10 18 -18 17 c-22
20 -25 20 -40 2z"/>
<path d="M7091 5835 l-31 -36 0 -42 c0 -48 4 -54 44 -85 l29 -22 41 0 c61 1
106 48 106 112 l0 33 -31 38 -30 37 -49 0 -48 0 -31 -35z"/>
</g>
</svg>
